ISO-10303-21;
HEADER;
FILE_DESCRIPTION(('Designed by EasyEDA Pro'),'2;1');
FILE_NAME('Open CASCADE Shape Model','2026-08-04T23:33:40',('Author'),(
    'Open CASCADE'),'Open CASCADE STEP processor 7.8','Open CASCADE 7.8'
  ,'Unknown');
FILE_SCHEMA(('AUTOMOTIVE_DESIGN { 1 0 10303 214 1 1 1 1 }'));
ENDSEC;
DATA;
#1 = APPLICATION_PROTOCOL_DEFINITION('international standard',
  'automotive_design',2000,#2);
#2 = APPLICATION_CONTEXT(
  'core data for automotive mechanical design processes');
#3 = SHAPE_DEFINITION_REPRESENTATION(#4,#10);
#4 = PRODUCT_DEFINITION_SHAPE('','',#5);
#5 = PRODUCT_DEFINITION('design','',#6,#9);
#6 = PRODUCT_DEFINITION_FORMATION('','',#7);
#7 = PRODUCT('EasyEDA PCB Model~hO0L','EasyEDA PCB Model~hO0L','',(#8));
#8 = PRODUCT_CONTEXT('',#2,'mechanical');
#9 = PRODUCT_DEFINITION_CONTEXT('part definition',#2,'design');
#10 = SHAPE_REPRESENTATION('',(#11,#15,#19,#23,#27,#31),#35);
#11 = AXIS2_PLACEMENT_3D('',#12,#13,#14);
#12 = CARTESIAN_POINT('',(0.,0.,0.));
#13 = DIRECTION('',(0.,0.,1.));
#14 = DIRECTION('',(1.,0.,-0.));
#15 = AXIS2_PLACEMENT_3D('',#16,#17,#18);
#16 = CARTESIAN_POINT('',(0.,0.,0.));
#17 = DIRECTION('',(0.,0.,1.));
#18 = DIRECTION('',(1.,0.,-0.));
#19 = AXIS2_PLACEMENT_3D('',#20,#21,#22);
#20 = CARTESIAN_POINT('',(0.,0.,1.596156972314));
#21 = DIRECTION('',(0.,0.,1.));
#22 = DIRECTION('',(1.,0.,-0.));
#23 = AXIS2_PLACEMENT_3D('',#24,#25,#26);
#24 = CARTESIAN_POINT('',(0.,0.,-1.E-02));
#25 = DIRECTION('',(0.,0.,1.));
#26 = DIRECTION('',(1.,0.,-0.));
#27 = AXIS2_PLACEMENT_3D('',#28,#29,#30);
#28 = CARTESIAN_POINT('',(0.,0.,0.));
#29 = DIRECTION('',(0.,0.,1.));
#30 = DIRECTION('',(1.,0.,-0.));
#31 = AXIS2_PLACEMENT_3D('',#32,#33,#34);
#32 = CARTESIAN_POINT('',(0.,0.,0.));
#33 = DIRECTION('',(0.,0.,1.));
#34 = DIRECTION('',(1.,0.,-0.));
#35 = ( GEOMETRIC_REPRESENTATION_CONTEXT(3) 
GLOBAL_UNCERTAINTY_ASSIGNED_CONTEXT((#39)) GLOBAL_UNIT_ASSIGNED_CONTEXT(
(#36,#37,#38)) REPRESENTATION_CONTEXT('Context #1',
  '3D Context with UNIT and UNCERTAINTY') );
#36 = ( LENGTH_UNIT() NAMED_UNIT(*) SI_UNIT(.MILLI.,.METRE.) );
#37 = ( NAMED_UNIT(*) PLANE_ANGLE_UNIT() SI_UNIT($,.RADIAN.) );
#38 = ( NAMED_UNIT(*) SI_UNIT($,.STERADIAN.) SOLID_ANGLE_UNIT() );
#39 = UNCERTAINTY_MEASURE_WITH_UNIT(LENGTH_MEASURE(1.E-07),#36,
  'distance_accuracy_value','confusion accuracy');
#40 = PRODUCT_RELATED_PRODUCT_CATEGORY('part',$,(#7));
#41 = SHAPE_DEFINITION_REPRESENTATION(#42,#48);
#42 = PRODUCT_DEFINITION_SHAPE('','',#43);
#43 = PRODUCT_DEFINITION('design','',#44,#47);
#44 = PRODUCT_DEFINITION_FORMATION('','',#45);
#45 = PRODUCT('Board~hO0L','Board~hO0L','',(#46));
#46 = PRODUCT_CONTEXT('',#2,'mechanical');
#47 = PRODUCT_DEFINITION_CONTEXT('part definition',#2,'design');
#48 = ADVANCED_BREP_SHAPE_REPRESENTATION('',(#11,#49),#857);
#49 = MANIFOLD_SOLID_BREP('',#50);
#50 = CLOSED_SHELL('',(#51,#93,#124,#157,#188,#221,#252,#285,#307,#349,
    #373,#415,#439,#481,#505,#547,#571,#613,#637,#679,#703,#745,#769,
    #813));
#51 = ADVANCED_FACE('',(#52),#88,.T.);
#52 = FACE_BOUND('',#53,.T.);
#53 = EDGE_LOOP('',(#54,#64,#73,#81));
#54 = ORIENTED_EDGE('',*,*,#55,.T.);
#55 = EDGE_CURVE('',#56,#58,#60,.T.);
#56 = VERTEX_POINT('',#57);
#57 = CARTESIAN_POINT('',(38.404475488951,40.196992633985,0.));
#58 = VERTEX_POINT('',#59);
#59 = CARTESIAN_POINT('',(38.404475488951,40.196992633985,1.586156972314
    ));
#60 = LINE('',#61,#62);
#61 = CARTESIAN_POINT('',(38.404475488951,40.196992633985,0.));
#62 = VECTOR('',#63,1.);
#63 = DIRECTION('',(0.,0.,1.));
#64 = ORIENTED_EDGE('',*,*,#65,.T.);
#65 = EDGE_CURVE('',#58,#66,#68,.T.);
#66 = VERTEX_POINT('',#67);
#67 = CARTESIAN_POINT('',(40.391780543561,38.209687579375,1.586156972314
    ));
#68 = CIRCLE('',#69,1.98730505461);
#69 = AXIS2_PLACEMENT_3D('',#70,#71,#72);
#70 = CARTESIAN_POINT('',(38.404475488951,38.209687579375,1.586156972314
    ));
#71 = DIRECTION('',(0.,0.,-1.));
#72 = DIRECTION('',(-3.239250595006E-15,1.,0.));
#73 = ORIENTED_EDGE('',*,*,#74,.F.);
#74 = EDGE_CURVE('',#75,#66,#77,.T.);
#75 = VERTEX_POINT('',#76);
#76 = CARTESIAN_POINT('',(40.391780543561,38.209687579375,0.));
#77 = LINE('',#78,#79);
#78 = CARTESIAN_POINT('',(40.391780543561,38.209687579375,0.));
#79 = VECTOR('',#80,1.);
#80 = DIRECTION('',(0.,0.,1.));
#81 = ORIENTED_EDGE('',*,*,#82,.F.);
#82 = EDGE_CURVE('',#56,#75,#83,.T.);
#83 = CIRCLE('',#84,1.98730505461);
#84 = AXIS2_PLACEMENT_3D('',#85,#86,#87);
#85 = CARTESIAN_POINT('',(38.404475488951,38.209687579375,0.));
#86 = DIRECTION('',(0.,0.,-1.));
#87 = DIRECTION('',(-3.239250595006E-15,1.,0.));
#88 = CYLINDRICAL_SURFACE('',#89,1.98730505461);
#89 = AXIS2_PLACEMENT_3D('',#90,#91,#92);
#90 = CARTESIAN_POINT('',(38.404475488951,38.209687579375,0.));
#91 = DIRECTION('',(0.,0.,-1.));
#92 = DIRECTION('',(-3.239250595006E-15,1.,0.));
#93 = ADVANCED_FACE('',(#94),#119,.T.);
#94 = FACE_BOUND('',#95,.T.);
#95 = EDGE_LOOP('',(#96,#97,#105,#113));
#96 = ORIENTED_EDGE('',*,*,#74,.T.);
#97 = ORIENTED_EDGE('',*,*,#98,.T.);
#98 = EDGE_CURVE('',#66,#99,#101,.T.);
#99 = VERTEX_POINT('',#100);
#100 = CARTESIAN_POINT('',(40.391780543561,1.693007366015,1.586156972314
    ));
#101 = LINE('',#102,#103);
#102 = CARTESIAN_POINT('',(40.391780543561,38.209687579375,
    1.586156972314));
#103 = VECTOR('',#104,1.);
#104 = DIRECTION('',(-1.945803209954E-16,-1.,0.));
#105 = ORIENTED_EDGE('',*,*,#106,.F.);
#106 = EDGE_CURVE('',#107,#99,#109,.T.);
#107 = VERTEX_POINT('',#108);
#108 = CARTESIAN_POINT('',(40.391780543561,1.693007366015,0.));
#109 = LINE('',#110,#111);
#110 = CARTESIAN_POINT('',(40.391780543561,1.693007366015,0.));
#111 = VECTOR('',#112,1.);
#112 = DIRECTION('',(0.,0.,1.));
#113 = ORIENTED_EDGE('',*,*,#114,.F.);
#114 = EDGE_CURVE('',#75,#107,#115,.T.);
#115 = LINE('',#116,#117);
#116 = CARTESIAN_POINT('',(40.391780543561,38.209687579375,0.));
#117 = VECTOR('',#118,1.);
#118 = DIRECTION('',(-1.945803209954E-16,-1.,0.));
#119 = PLANE('',#120);
#120 = AXIS2_PLACEMENT_3D('',#121,#122,#123);
#121 = CARTESIAN_POINT('',(40.391780543561,38.209687579375,0.));
#122 = DIRECTION('',(1.,-1.945803209954E-16,0.));
#123 = DIRECTION('',(-1.945803209954E-16,-1.,0.));
#124 = ADVANCED_FACE('',(#125),#152,.T.);
#125 = FACE_BOUND('',#126,.T.);
#126 = EDGE_LOOP('',(#127,#128,#137,#145));
#127 = ORIENTED_EDGE('',*,*,#106,.T.);
#128 = ORIENTED_EDGE('',*,*,#129,.T.);
#129 = EDGE_CURVE('',#99,#130,#132,.T.);
#130 = VERTEX_POINT('',#131);
#131 = CARTESIAN_POINT('',(38.404475488951,-0.294297688595,
    1.586156972314));
#132 = CIRCLE('',#133,1.98730505461);
#133 = AXIS2_PLACEMENT_3D('',#134,#135,#136);
#134 = CARTESIAN_POINT('',(38.404475488951,1.693007366015,1.586156972314
    ));
#135 = DIRECTION('',(0.,0.,-1.));
#136 = DIRECTION('',(1.,-4.740366724398E-16,0.));
#137 = ORIENTED_EDGE('',*,*,#138,.F.);
#138 = EDGE_CURVE('',#139,#130,#141,.T.);
#139 = VERTEX_POINT('',#140);
#140 = CARTESIAN_POINT('',(38.404475488951,-0.294297688595,0.));
#141 = LINE('',#142,#143);
#142 = CARTESIAN_POINT('',(38.404475488951,-0.294297688595,0.));
#143 = VECTOR('',#144,1.);
#144 = DIRECTION('',(0.,0.,1.));
#145 = ORIENTED_EDGE('',*,*,#146,.F.);
#146 = EDGE_CURVE('',#107,#139,#147,.T.);
#147 = CIRCLE('',#148,1.98730505461);
#148 = AXIS2_PLACEMENT_3D('',#149,#150,#151);
#149 = CARTESIAN_POINT('',(38.404475488951,1.693007366015,0.));
#150 = DIRECTION('',(0.,0.,-1.));
#151 = DIRECTION('',(1.,-4.740366724398E-16,0.));
#152 = CYLINDRICAL_SURFACE('',#153,1.98730505461);
#153 = AXIS2_PLACEMENT_3D('',#154,#155,#156);
#154 = CARTESIAN_POINT('',(38.404475488951,1.693007366015,0.));
#155 = DIRECTION('',(0.,0.,-1.));
#156 = DIRECTION('',(1.,-4.740366724398E-16,0.));
#157 = ADVANCED_FACE('',(#158),#183,.T.);
#158 = FACE_BOUND('',#159,.T.);
#159 = EDGE_LOOP('',(#160,#161,#169,#177));
#160 = ORIENTED_EDGE('',*,*,#138,.T.);
#161 = ORIENTED_EDGE('',*,*,#162,.T.);
#162 = EDGE_CURVE('',#130,#163,#165,.T.);
#163 = VERTEX_POINT('',#164);
#164 = CARTESIAN_POINT('',(1.000002540005,-0.294297688595,1.586156972314
    ));
#165 = LINE('',#166,#167);
#166 = CARTESIAN_POINT('',(38.404475488951,-0.294297688595,
    1.586156972314));
#167 = VECTOR('',#168,1.);
#168 = DIRECTION('',(-1.,2.522932410301E-17,0.));
#169 = ORIENTED_EDGE('',*,*,#170,.F.);
#170 = EDGE_CURVE('',#171,#163,#173,.T.);
#171 = VERTEX_POINT('',#172);
#172 = CARTESIAN_POINT('',(1.000002540005,-0.294297688595,0.));
#173 = LINE('',#174,#175);
#174 = CARTESIAN_POINT('',(1.000002540005,-0.294297688595,0.));
#175 = VECTOR('',#176,1.);
#176 = DIRECTION('',(0.,0.,1.));
#177 = ORIENTED_EDGE('',*,*,#178,.F.);
#178 = EDGE_CURVE('',#139,#171,#179,.T.);
#179 = LINE('',#180,#181);
#180 = CARTESIAN_POINT('',(38.404475488951,-0.294297688595,0.));
#181 = VECTOR('',#182,1.);
#182 = DIRECTION('',(-1.,2.522932410301E-17,0.));
#183 = PLANE('',#184);
#184 = AXIS2_PLACEMENT_3D('',#185,#186,#187);
#185 = CARTESIAN_POINT('',(38.404475488951,-0.294297688595,0.));
#186 = DIRECTION('',(-2.522932410301E-17,-1.,0.));
#187 = DIRECTION('',(-1.,2.522932410301E-17,0.));
#188 = ADVANCED_FACE('',(#189),#216,.T.);
#189 = FACE_BOUND('',#190,.T.);
#190 = EDGE_LOOP('',(#191,#192,#201,#209));
#191 = ORIENTED_EDGE('',*,*,#170,.T.);
#192 = ORIENTED_EDGE('',*,*,#193,.T.);
#193 = EDGE_CURVE('',#163,#194,#196,.T.);
#194 = VERTEX_POINT('',#195);
#195 = CARTESIAN_POINT('',(-0.987302514605,1.693007366015,1.586156972314
    ));
#196 = CIRCLE('',#197,1.98730505461);
#197 = AXIS2_PLACEMENT_3D('',#198,#199,#200);
#198 = CARTESIAN_POINT('',(1.000002540005,1.693007366015,1.586156972314)
  );
#199 = DIRECTION('',(0.,0.,-1.));
#200 = DIRECTION('',(0.,-1.,-0.));
#201 = ORIENTED_EDGE('',*,*,#202,.F.);
#202 = EDGE_CURVE('',#203,#194,#205,.T.);
#203 = VERTEX_POINT('',#204);
#204 = CARTESIAN_POINT('',(-0.987302514605,1.693007366015,0.));
#205 = LINE('',#206,#207);
#206 = CARTESIAN_POINT('',(-0.987302514605,1.693007366015,0.));
#207 = VECTOR('',#208,1.);
#208 = DIRECTION('',(0.,0.,1.));
#209 = ORIENTED_EDGE('',*,*,#210,.F.);
#210 = EDGE_CURVE('',#171,#203,#211,.T.);
#211 = CIRCLE('',#212,1.98730505461);
#212 = AXIS2_PLACEMENT_3D('',#213,#214,#215);
#213 = CARTESIAN_POINT('',(1.000002540005,1.693007366015,0.));
#214 = DIRECTION('',(0.,0.,-1.));
#215 = DIRECTION('',(0.,-1.,-0.));
#216 = CYLINDRICAL_SURFACE('',#217,1.98730505461);
#217 = AXIS2_PLACEMENT_3D('',#218,#219,#220);
#218 = CARTESIAN_POINT('',(1.000002540005,1.693007366015,0.));
#219 = DIRECTION('',(0.,0.,-1.));
#220 = DIRECTION('',(0.,-1.,-0.));
#221 = ADVANCED_FACE('',(#222),#247,.T.);
#222 = FACE_BOUND('',#223,.T.);
#223 = EDGE_LOOP('',(#224,#225,#233,#241));
#224 = ORIENTED_EDGE('',*,*,#202,.T.);
#225 = ORIENTED_EDGE('',*,*,#226,.T.);
#226 = EDGE_CURVE('',#194,#227,#229,.T.);
#227 = VERTEX_POINT('',#228);
#228 = CARTESIAN_POINT('',(-0.987302514605,38.209687579375,
    1.586156972314));
#229 = LINE('',#230,#231);
#230 = CARTESIAN_POINT('',(-0.987302514605,1.693007366015,1.586156972314
    ));
#231 = VECTOR('',#232,1.);
#232 = DIRECTION('',(6.688698534216E-17,1.,0.));
#233 = ORIENTED_EDGE('',*,*,#234,.F.);
#234 = EDGE_CURVE('',#235,#227,#237,.T.);
#235 = VERTEX_POINT('',#236);
#236 = CARTESIAN_POINT('',(-0.987302514605,38.209687579375,0.));
#237 = LINE('',#238,#239);
#238 = CARTESIAN_POINT('',(-0.987302514605,38.209687579375,0.));
#239 = VECTOR('',#240,1.);
#240 = DIRECTION('',(0.,0.,1.));
#241 = ORIENTED_EDGE('',*,*,#242,.F.);
#242 = EDGE_CURVE('',#203,#235,#243,.T.);
#243 = LINE('',#244,#245);
#244 = CARTESIAN_POINT('',(-0.987302514605,1.693007366015,0.));
#245 = VECTOR('',#246,1.);
#246 = DIRECTION('',(6.688698534216E-17,1.,0.));
#247 = PLANE('',#248);
#248 = AXIS2_PLACEMENT_3D('',#249,#250,#251);
#249 = CARTESIAN_POINT('',(-0.987302514605,1.693007366015,0.));
#250 = DIRECTION('',(-1.,6.688698534216E-17,0.));
#251 = DIRECTION('',(6.688698534216E-17,1.,0.));
#252 = ADVANCED_FACE('',(#253),#280,.T.);
#253 = FACE_BOUND('',#254,.T.);
#254 = EDGE_LOOP('',(#255,#256,#265,#273));
#255 = ORIENTED_EDGE('',*,*,#234,.T.);
#256 = ORIENTED_EDGE('',*,*,#257,.T.);
#257 = EDGE_CURVE('',#227,#258,#260,.T.);
#258 = VERTEX_POINT('',#259);
#259 = CARTESIAN_POINT('',(1.000002540005,40.196992633985,1.586156972314
    ));
#260 = CIRCLE('',#261,1.98730505461);
#261 = AXIS2_PLACEMENT_3D('',#262,#263,#264);
#262 = CARTESIAN_POINT('',(1.000002540005,38.209687579375,1.586156972314
    ));
#263 = DIRECTION('',(0.,0.,-1.));
#264 = DIRECTION('',(-1.,-2.212171138053E-15,-0.));
#265 = ORIENTED_EDGE('',*,*,#266,.F.);
#266 = EDGE_CURVE('',#267,#258,#269,.T.);
#267 = VERTEX_POINT('',#268);
#268 = CARTESIAN_POINT('',(1.000002540005,40.196992633985,0.));
#269 = LINE('',#270,#271);
#270 = CARTESIAN_POINT('',(1.000002540005,40.196992633985,0.));
#271 = VECTOR('',#272,1.);
#272 = DIRECTION('',(0.,0.,1.));
#273 = ORIENTED_EDGE('',*,*,#274,.F.);
#274 = EDGE_CURVE('',#235,#267,#275,.T.);
#275 = CIRCLE('',#276,1.98730505461);
#276 = AXIS2_PLACEMENT_3D('',#277,#278,#279);
#277 = CARTESIAN_POINT('',(1.000002540005,38.209687579375,0.));
#278 = DIRECTION('',(0.,0.,-1.));
#279 = DIRECTION('',(-1.,-2.212171138053E-15,-0.));
#280 = CYLINDRICAL_SURFACE('',#281,1.98730505461);
#281 = AXIS2_PLACEMENT_3D('',#282,#283,#284);
#282 = CARTESIAN_POINT('',(1.000002540005,38.209687579375,0.));
#283 = DIRECTION('',(0.,0.,-1.));
#284 = DIRECTION('',(-1.,-2.212171138053E-15,-0.));
#285 = ADVANCED_FACE('',(#286),#302,.T.);
#286 = FACE_BOUND('',#287,.T.);
#287 = EDGE_LOOP('',(#288,#289,#295,#296));
#288 = ORIENTED_EDGE('',*,*,#266,.T.);
#289 = ORIENTED_EDGE('',*,*,#290,.T.);
#290 = EDGE_CURVE('',#258,#58,#291,.T.);
#291 = LINE('',#292,#293);
#292 = CARTESIAN_POINT('',(1.000002540005,40.196992633985,1.586156972314
    ));
#293 = VECTOR('',#294,1.);
#294 = DIRECTION('',(1.,-1.899619697168E-16,0.));
#295 = ORIENTED_EDGE('',*,*,#55,.F.);
#296 = ORIENTED_EDGE('',*,*,#297,.F.);
#297 = EDGE_CURVE('',#267,#56,#298,.T.);
#298 = LINE('',#299,#300);
#299 = CARTESIAN_POINT('',(1.000002540005,40.196992633985,0.));
#300 = VECTOR('',#301,1.);
#301 = DIRECTION('',(1.,-1.899619697168E-16,0.));
#302 = PLANE('',#303);
#303 = AXIS2_PLACEMENT_3D('',#304,#305,#306);
#304 = CARTESIAN_POINT('',(1.000002540005,40.196992633985,0.));
#305 = DIRECTION('',(1.899619697168E-16,1.,-0.));
#306 = DIRECTION('',(1.,-1.899619697168E-16,0.));
#307 = ADVANCED_FACE('',(#308),#344,.F.);
#308 = FACE_BOUND('',#309,.T.);
#309 = EDGE_LOOP('',(#310,#320,#329,#337));
#310 = ORIENTED_EDGE('',*,*,#311,.T.);
#311 = EDGE_CURVE('',#312,#314,#316,.T.);
#312 = VERTEX_POINT('',#313);
#313 = CARTESIAN_POINT('',(2.778211836424,2.389410718821,0.));
#314 = VERTEX_POINT('',#315);
#315 = CARTESIAN_POINT('',(2.778211836424,2.389410718821,1.586156972314)
  );
#316 = LINE('',#317,#318);
#317 = CARTESIAN_POINT('',(2.778211836424,2.389410718821,0.));
#318 = VECTOR('',#319,1.);
#319 = DIRECTION('',(0.,0.,1.));
#320 = ORIENTED_EDGE('',*,*,#321,.T.);
#321 = EDGE_CURVE('',#314,#322,#324,.T.);
#322 = VERTEX_POINT('',#323);
#323 = CARTESIAN_POINT('',(0.578206756414,2.389410718821,1.586156972314)
  );
#324 = CIRCLE('',#325,1.100002540005);
#325 = AXIS2_PLACEMENT_3D('',#326,#327,#328);
#326 = CARTESIAN_POINT('',(1.678209296419,2.389410718821,1.586156972314)
  );
#327 = DIRECTION('',(0.,0.,1.));
#328 = DIRECTION('',(1.,1.110223024625E-16,-0.));
#329 = ORIENTED_EDGE('',*,*,#330,.F.);
#330 = EDGE_CURVE('',#331,#322,#333,.T.);
#331 = VERTEX_POINT('',#332);
#332 = CARTESIAN_POINT('',(0.578206756414,2.389410718821,0.));
#333 = LINE('',#334,#335);
#334 = CARTESIAN_POINT('',(0.578206756414,2.389410718821,0.));
#335 = VECTOR('',#336,1.);
#336 = DIRECTION('',(0.,0.,1.));
#337 = ORIENTED_EDGE('',*,*,#338,.F.);
#338 = EDGE_CURVE('',#312,#331,#339,.T.);
#339 = CIRCLE('',#340,1.100002540005);
#340 = AXIS2_PLACEMENT_3D('',#341,#342,#343);
#341 = CARTESIAN_POINT('',(1.678209296419,2.389410718821,0.));
#342 = DIRECTION('',(0.,0.,1.));
#343 = DIRECTION('',(1.,1.110223024625E-16,-0.));
#344 = CYLINDRICAL_SURFACE('',#345,1.100002540005);
#345 = AXIS2_PLACEMENT_3D('',#346,#347,#348);
#346 = CARTESIAN_POINT('',(1.678209296419,2.389410718821,0.));
#347 = DIRECTION('',(-0.,-0.,-1.));
#348 = DIRECTION('',(1.,1.110223024625E-16,-0.));
#349 = ADVANCED_FACE('',(#350),#368,.F.);
#350 = FACE_BOUND('',#351,.T.);
#351 = EDGE_LOOP('',(#352,#353,#360,#361));
#352 = ORIENTED_EDGE('',*,*,#330,.T.);
#353 = ORIENTED_EDGE('',*,*,#354,.T.);
#354 = EDGE_CURVE('',#322,#314,#355,.T.);
#355 = CIRCLE('',#356,1.100002540005);
#356 = AXIS2_PLACEMENT_3D('',#357,#358,#359);
#357 = CARTESIAN_POINT('',(1.678209296419,2.389410718821,1.586156972314)
  );
#358 = DIRECTION('',(0.,0.,1.));
#359 = DIRECTION('',(-1.,-1.110223024625E-16,0.));
#360 = ORIENTED_EDGE('',*,*,#311,.F.);
#361 = ORIENTED_EDGE('',*,*,#362,.F.);
#362 = EDGE_CURVE('',#331,#312,#363,.T.);
#363 = CIRCLE('',#364,1.100002540005);
#364 = AXIS2_PLACEMENT_3D('',#365,#366,#367);
#365 = CARTESIAN_POINT('',(1.678209296419,2.389410718821,0.));
#366 = DIRECTION('',(0.,0.,1.));
#367 = DIRECTION('',(-1.,-1.110223024625E-16,0.));
#368 = CYLINDRICAL_SURFACE('',#369,1.100002540005);
#369 = AXIS2_PLACEMENT_3D('',#370,#371,#372);
#370 = CARTESIAN_POINT('',(1.678209296419,2.389410718821,0.));
#371 = DIRECTION('',(-0.,-0.,-1.));
#372 = DIRECTION('',(-1.,-1.110223024625E-16,0.));
#373 = ADVANCED_FACE('',(#374),#410,.F.);
#374 = FACE_BOUND('',#375,.T.);
#375 = EDGE_LOOP('',(#376,#386,#395,#403));
#376 = ORIENTED_EDGE('',*,*,#377,.T.);
#377 = EDGE_CURVE('',#378,#380,#382,.T.);
#378 = VERTEX_POINT('',#379);
#379 = CARTESIAN_POINT('',(2.778412496825,37.54381508763,0.));
#380 = VERTEX_POINT('',#381);
#381 = CARTESIAN_POINT('',(2.778412496825,37.54381508763,1.586156972314)
  );
#382 = LINE('',#383,#384);
#383 = CARTESIAN_POINT('',(2.778412496825,37.54381508763,0.));
#384 = VECTOR('',#385,1.);
#385 = DIRECTION('',(0.,0.,1.));
#386 = ORIENTED_EDGE('',*,*,#387,.T.);
#387 = EDGE_CURVE('',#380,#388,#390,.T.);
#388 = VERTEX_POINT('',#389);
#389 = CARTESIAN_POINT('',(0.578407416815,37.54381508763,1.586156972314)
  );
#390 = CIRCLE('',#391,1.100002540005);
#391 = AXIS2_PLACEMENT_3D('',#392,#393,#394);
#392 = CARTESIAN_POINT('',(1.67840995682,37.54381508763,1.586156972314)
  );
#393 = DIRECTION('',(0.,0.,1.));
#394 = DIRECTION('',(1.,1.110223024625E-16,-0.));
#395 = ORIENTED_EDGE('',*,*,#396,.F.);
#396 = EDGE_CURVE('',#397,#388,#399,.T.);
#397 = VERTEX_POINT('',#398);
#398 = CARTESIAN_POINT('',(0.578407416815,37.54381508763,0.));
#399 = LINE('',#400,#401);
#400 = CARTESIAN_POINT('',(0.578407416815,37.54381508763,0.));
#401 = VECTOR('',#402,1.);
#402 = DIRECTION('',(0.,0.,1.));
#403 = ORIENTED_EDGE('',*,*,#404,.F.);
#404 = EDGE_CURVE('',#378,#397,#405,.T.);
#405 = CIRCLE('',#406,1.100002540005);
#406 = AXIS2_PLACEMENT_3D('',#407,#408,#409);
#407 = CARTESIAN_POINT('',(1.67840995682,37.54381508763,0.));
#408 = DIRECTION('',(0.,0.,1.));
#409 = DIRECTION('',(1.,1.110223024625E-16,-0.));
#410 = CYLINDRICAL_SURFACE('',#411,1.100002540005);
#411 = AXIS2_PLACEMENT_3D('',#412,#413,#414);
#412 = CARTESIAN_POINT('',(1.67840995682,37.54381508763,0.));
#413 = DIRECTION('',(-0.,-0.,-1.));
#414 = DIRECTION('',(1.,1.110223024625E-16,-0.));
#415 = ADVANCED_FACE('',(#416),#434,.F.);
#416 = FACE_BOUND('',#417,.T.);
#417 = EDGE_LOOP('',(#418,#419,#426,#427));
#418 = ORIENTED_EDGE('',*,*,#396,.T.);
#419 = ORIENTED_EDGE('',*,*,#420,.T.);
#420 = EDGE_CURVE('',#388,#380,#421,.T.);
#421 = CIRCLE('',#422,1.100002540005);
#422 = AXIS2_PLACEMENT_3D('',#423,#424,#425);
#423 = CARTESIAN_POINT('',(1.67840995682,37.54381508763,1.586156972314)
  );
#424 = DIRECTION('',(0.,0.,1.));
#425 = DIRECTION('',(-1.,-1.110223024625E-16,0.));
#426 = ORIENTED_EDGE('',*,*,#377,.F.);
#427 = ORIENTED_EDGE('',*,*,#428,.F.);
#428 = EDGE_CURVE('',#397,#378,#429,.T.);
#429 = CIRCLE('',#430,1.100002540005);
#430 = AXIS2_PLACEMENT_3D('',#431,#432,#433);
#431 = CARTESIAN_POINT('',(1.67840995682,37.54381508763,0.));
#432 = DIRECTION('',(0.,0.,1.));
#433 = DIRECTION('',(-1.,-1.110223024625E-16,0.));
#434 = CYLINDRICAL_SURFACE('',#435,1.100002540005);
#435 = AXIS2_PLACEMENT_3D('',#436,#437,#438);
#436 = CARTESIAN_POINT('',(1.67840995682,37.54381508763,0.));
#437 = DIRECTION('',(-0.,-0.,-1.));
#438 = DIRECTION('',(-1.,-1.110223024625E-16,0.));
#439 = ADVANCED_FACE('',(#440),#476,.F.);
#440 = FACE_BOUND('',#441,.T.);
#441 = EDGE_LOOP('',(#442,#452,#461,#469));
#442 = ORIENTED_EDGE('',*,*,#443,.T.);
#443 = EDGE_CURVE('',#444,#446,#448,.T.);
#444 = VERTEX_POINT('',#445);
#445 = CARTESIAN_POINT('',(6.480899161798,25.659639319279,0.));
#446 = VERTEX_POINT('',#447);
#447 = CARTESIAN_POINT('',(6.480899161798,25.659639319279,1.586156972314
    ));
#448 = LINE('',#449,#450);
#449 = CARTESIAN_POINT('',(6.480899161798,25.659639319279,0.));
#450 = VECTOR('',#451,1.);
#451 = DIRECTION('',(0.,0.,1.));
#452 = ORIENTED_EDGE('',*,*,#453,.T.);
#453 = EDGE_CURVE('',#446,#454,#456,.T.);
#454 = VERTEX_POINT('',#455);
#455 = CARTESIAN_POINT('',(5.830911861824,25.659639319279,1.586156972314
    ));
#456 = CIRCLE('',#457,0.324993649987);
#457 = AXIS2_PLACEMENT_3D('',#458,#459,#460);
#458 = CARTESIAN_POINT('',(6.155905511811,25.659639319279,1.586156972314
    ));
#459 = DIRECTION('',(0.,0.,1.));
#460 = DIRECTION('',(1.,1.110223024625E-16,-0.));
#461 = ORIENTED_EDGE('',*,*,#462,.F.);
#462 = EDGE_CURVE('',#463,#454,#465,.T.);
#463 = VERTEX_POINT('',#464);
#464 = CARTESIAN_POINT('',(5.830911861824,25.659639319279,0.));
#465 = LINE('',#466,#467);
#466 = CARTESIAN_POINT('',(5.830911861824,25.659639319279,0.));
#467 = VECTOR('',#468,1.);
#468 = DIRECTION('',(0.,0.,1.));
#469 = ORIENTED_EDGE('',*,*,#470,.F.);
#470 = EDGE_CURVE('',#444,#463,#471,.T.);
#471 = CIRCLE('',#472,0.324993649987);
#472 = AXIS2_PLACEMENT_3D('',#473,#474,#475);
#473 = CARTESIAN_POINT('',(6.155905511811,25.659639319279,0.));
#474 = DIRECTION('',(0.,0.,1.));
#475 = DIRECTION('',(1.,1.110223024625E-16,-0.));
#476 = CYLINDRICAL_SURFACE('',#477,0.324993649987);
#477 = AXIS2_PLACEMENT_3D('',#478,#479,#480);
#478 = CARTESIAN_POINT('',(6.155905511811,25.659639319279,0.));
#479 = DIRECTION('',(-0.,-0.,-1.));
#480 = DIRECTION('',(1.,1.110223024625E-16,-0.));
#481 = ADVANCED_FACE('',(#482),#500,.F.);
#482 = FACE_BOUND('',#483,.T.);
#483 = EDGE_LOOP('',(#484,#485,#492,#493));
#484 = ORIENTED_EDGE('',*,*,#462,.T.);
#485 = ORIENTED_EDGE('',*,*,#486,.T.);
#486 = EDGE_CURVE('',#454,#446,#487,.T.);
#487 = CIRCLE('',#488,0.324993649987);
#488 = AXIS2_PLACEMENT_3D('',#489,#490,#491);
#489 = CARTESIAN_POINT('',(6.155905511811,25.659639319279,1.586156972314
    ));
#490 = DIRECTION('',(0.,0.,1.));
#491 = DIRECTION('',(-1.,-1.110223024625E-16,0.));
#492 = ORIENTED_EDGE('',*,*,#443,.F.);
#493 = ORIENTED_EDGE('',*,*,#494,.F.);
#494 = EDGE_CURVE('',#463,#444,#495,.T.);
#495 = CIRCLE('',#496,0.324993649987);
#496 = AXIS2_PLACEMENT_3D('',#497,#498,#499);
#497 = CARTESIAN_POINT('',(6.155905511811,25.659639319279,0.));
#498 = DIRECTION('',(0.,0.,1.));
#499 = DIRECTION('',(-1.,-1.110223024625E-16,0.));
#500 = CYLINDRICAL_SURFACE('',#501,0.324993649987);
#501 = AXIS2_PLACEMENT_3D('',#502,#503,#504);
#502 = CARTESIAN_POINT('',(6.155905511811,25.659639319279,0.));
#503 = DIRECTION('',(-0.,-0.,-1.));
#504 = DIRECTION('',(-1.,-1.110223024625E-16,0.));
#505 = ADVANCED_FACE('',(#506),#542,.F.);
#506 = FACE_BOUND('',#507,.T.);
#507 = EDGE_LOOP('',(#508,#518,#527,#535));
#508 = ORIENTED_EDGE('',*,*,#509,.T.);
#509 = EDGE_CURVE('',#510,#512,#514,.T.);
#510 = VERTEX_POINT('',#511);
#511 = CARTESIAN_POINT('',(6.480899161798,31.43967487935,0.));
#512 = VERTEX_POINT('',#513);
#513 = CARTESIAN_POINT('',(6.480899161798,31.43967487935,1.586156972314)
  );
#514 = LINE('',#515,#516);
#515 = CARTESIAN_POINT('',(6.480899161798,31.43967487935,0.));
#516 = VECTOR('',#517,1.);
#517 = DIRECTION('',(0.,0.,1.));
#518 = ORIENTED_EDGE('',*,*,#519,.T.);
#519 = EDGE_CURVE('',#512,#520,#522,.T.);
#520 = VERTEX_POINT('',#521);
#521 = CARTESIAN_POINT('',(5.830911861824,31.43967487935,1.586156972314)
  );
#522 = CIRCLE('',#523,0.324993649987);
#523 = AXIS2_PLACEMENT_3D('',#524,#525,#526);
#524 = CARTESIAN_POINT('',(6.155905511811,31.43967487935,1.586156972314)
  );
#525 = DIRECTION('',(0.,0.,1.));
#526 = DIRECTION('',(1.,1.110223024625E-16,-0.));
#527 = ORIENTED_EDGE('',*,*,#528,.F.);
#528 = EDGE_CURVE('',#529,#520,#531,.T.);
#529 = VERTEX_POINT('',#530);
#530 = CARTESIAN_POINT('',(5.830911861824,31.43967487935,0.));
#531 = LINE('',#532,#533);
#532 = CARTESIAN_POINT('',(5.830911861824,31.43967487935,0.));
#533 = VECTOR('',#534,1.);
#534 = DIRECTION('',(0.,0.,1.));
#535 = ORIENTED_EDGE('',*,*,#536,.F.);
#536 = EDGE_CURVE('',#510,#529,#537,.T.);
#537 = CIRCLE('',#538,0.324993649987);
#538 = AXIS2_PLACEMENT_3D('',#539,#540,#541);
#539 = CARTESIAN_POINT('',(6.155905511811,31.43967487935,0.));
#540 = DIRECTION('',(0.,0.,1.));
#541 = DIRECTION('',(1.,1.110223024625E-16,-0.));
#542 = CYLINDRICAL_SURFACE('',#543,0.324993649987);
#543 = AXIS2_PLACEMENT_3D('',#544,#545,#546);
#544 = CARTESIAN_POINT('',(6.155905511811,31.43967487935,0.));
#545 = DIRECTION('',(-0.,-0.,-1.));
#546 = DIRECTION('',(1.,1.110223024625E-16,-0.));
#547 = ADVANCED_FACE('',(#548),#566,.F.);
#548 = FACE_BOUND('',#549,.T.);
#549 = EDGE_LOOP('',(#550,#551,#558,#559));
#550 = ORIENTED_EDGE('',*,*,#528,.T.);
#551 = ORIENTED_EDGE('',*,*,#552,.T.);
#552 = EDGE_CURVE('',#520,#512,#553,.T.);
#553 = CIRCLE('',#554,0.324993649987);
#554 = AXIS2_PLACEMENT_3D('',#555,#556,#557);
#555 = CARTESIAN_POINT('',(6.155905511811,31.43967487935,1.586156972314)
  );
#556 = DIRECTION('',(0.,0.,1.));
#557 = DIRECTION('',(-1.,-1.110223024625E-16,0.));
#558 = ORIENTED_EDGE('',*,*,#509,.F.);
#559 = ORIENTED_EDGE('',*,*,#560,.F.);
#560 = EDGE_CURVE('',#529,#510,#561,.T.);
#561 = CIRCLE('',#562,0.324993649987);
#562 = AXIS2_PLACEMENT_3D('',#563,#564,#565);
#563 = CARTESIAN_POINT('',(6.155905511811,31.43967487935,0.));
#564 = DIRECTION('',(0.,0.,1.));
#565 = DIRECTION('',(-1.,-1.110223024625E-16,0.));
#566 = CYLINDRICAL_SURFACE('',#567,0.324993649987);
#567 = AXIS2_PLACEMENT_3D('',#568,#569,#570);
#568 = CARTESIAN_POINT('',(6.155905511811,31.43967487935,0.));
#569 = DIRECTION('',(-0.,-0.,-1.));
#570 = DIRECTION('',(-1.,-1.110223024625E-16,0.));
#571 = ADVANCED_FACE('',(#572),#608,.F.);
#572 = FACE_BOUND('',#573,.T.);
#573 = EDGE_LOOP('',(#574,#584,#593,#601));
#574 = ORIENTED_EDGE('',*,*,#575,.T.);
#575 = EDGE_CURVE('',#576,#578,#580,.T.);
#576 = VERTEX_POINT('',#577);
#577 = CARTESIAN_POINT('',(8.195758191516,1.685039370079,0.));
#578 = VERTEX_POINT('',#579);
#579 = CARTESIAN_POINT('',(8.195758191516,1.685039370079,1.586156972314)
  );
#580 = LINE('',#581,#582);
#581 = CARTESIAN_POINT('',(8.195758191516,1.685039370079,0.));
#582 = VECTOR('',#583,1.);
#583 = DIRECTION('',(0.,0.,1.));
#584 = ORIENTED_EDGE('',*,*,#585,.T.);
#585 = EDGE_CURVE('',#578,#586,#588,.T.);
#586 = VERTEX_POINT('',#587);
#587 = CARTESIAN_POINT('',(7.295732791466,1.685039370079,1.586156972314)
  );
#588 = CIRCLE('',#589,0.450012700025);
#589 = AXIS2_PLACEMENT_3D('',#590,#591,#592);
#590 = CARTESIAN_POINT('',(7.745745491491,1.685039370079,1.586156972314)
  );
#591 = DIRECTION('',(0.,0.,1.));
#592 = DIRECTION('',(1.,1.110223024625E-16,-0.));
#593 = ORIENTED_EDGE('',*,*,#594,.F.);
#594 = EDGE_CURVE('',#595,#586,#597,.T.);
#595 = VERTEX_POINT('',#596);
#596 = CARTESIAN_POINT('',(7.295732791466,1.685039370079,0.));
#597 = LINE('',#598,#599);
#598 = CARTESIAN_POINT('',(7.295732791466,1.685039370079,0.));
#599 = VECTOR('',#600,1.);
#600 = DIRECTION('',(0.,0.,1.));
#601 = ORIENTED_EDGE('',*,*,#602,.F.);
#602 = EDGE_CURVE('',#576,#595,#603,.T.);
#603 = CIRCLE('',#604,0.450012700025);
#604 = AXIS2_PLACEMENT_3D('',#605,#606,#607);
#605 = CARTESIAN_POINT('',(7.745745491491,1.685039370079,0.));
#606 = DIRECTION('',(0.,0.,1.));
#607 = DIRECTION('',(1.,1.110223024625E-16,-0.));
#608 = CYLINDRICAL_SURFACE('',#609,0.450012700025);
#609 = AXIS2_PLACEMENT_3D('',#610,#611,#612);
#610 = CARTESIAN_POINT('',(7.745745491491,1.685039370079,0.));
#611 = DIRECTION('',(-0.,-0.,-1.));
#612 = DIRECTION('',(1.,1.110223024625E-16,-0.));
#613 = ADVANCED_FACE('',(#614),#632,.F.);
#614 = FACE_BOUND('',#615,.T.);
#615 = EDGE_LOOP('',(#616,#617,#624,#625));
#616 = ORIENTED_EDGE('',*,*,#594,.T.);
#617 = ORIENTED_EDGE('',*,*,#618,.T.);
#618 = EDGE_CURVE('',#586,#578,#619,.T.);
#619 = CIRCLE('',#620,0.450012700025);
#620 = AXIS2_PLACEMENT_3D('',#621,#622,#623);
#621 = CARTESIAN_POINT('',(7.745745491491,1.685039370079,1.586156972314)
  );
#622 = DIRECTION('',(0.,0.,1.));
#623 = DIRECTION('',(-1.,-1.110223024625E-16,0.));
#624 = ORIENTED_EDGE('',*,*,#575,.F.);
#625 = ORIENTED_EDGE('',*,*,#626,.F.);
#626 = EDGE_CURVE('',#595,#576,#627,.T.);
#627 = CIRCLE('',#628,0.450012700025);
#628 = AXIS2_PLACEMENT_3D('',#629,#630,#631);
#629 = CARTESIAN_POINT('',(7.745745491491,1.685039370079,0.));
#630 = DIRECTION('',(0.,0.,1.));
#631 = DIRECTION('',(-1.,-1.110223024625E-16,0.));
#632 = CYLINDRICAL_SURFACE('',#633,0.450012700025);
#633 = AXIS2_PLACEMENT_3D('',#634,#635,#636);
#634 = CARTESIAN_POINT('',(7.745745491491,1.685039370079,0.));
#635 = DIRECTION('',(-0.,-0.,-1.));
#636 = DIRECTION('',(-1.,-1.110223024625E-16,0.));
#637 = ADVANCED_FACE('',(#638),#674,.F.);
#638 = FACE_BOUND('',#639,.T.);
#639 = EDGE_LOOP('',(#640,#650,#659,#667));
#640 = ORIENTED_EDGE('',*,*,#641,.T.);
#641 = EDGE_CURVE('',#642,#644,#646,.T.);
#642 = VERTEX_POINT('',#643);
#643 = CARTESIAN_POINT('',(11.195758191516,1.685039370079,0.));
#644 = VERTEX_POINT('',#645);
#645 = CARTESIAN_POINT('',(11.195758191516,1.685039370079,1.586156972314
    ));
#646 = LINE('',#647,#648);
#647 = CARTESIAN_POINT('',(11.195758191516,1.685039370079,0.));
#648 = VECTOR('',#649,1.);
#649 = DIRECTION('',(0.,0.,1.));
#650 = ORIENTED_EDGE('',*,*,#651,.T.);
#651 = EDGE_CURVE('',#644,#652,#654,.T.);
#652 = VERTEX_POINT('',#653);
#653 = CARTESIAN_POINT('',(10.295732791466,1.685039370079,1.586156972314
    ));
#654 = CIRCLE('',#655,0.450012700025);
#655 = AXIS2_PLACEMENT_3D('',#656,#657,#658);
#656 = CARTESIAN_POINT('',(10.745745491491,1.685039370079,1.586156972314
    ));
#657 = DIRECTION('',(0.,0.,1.));
#658 = DIRECTION('',(1.,1.110223024625E-16,-0.));
#659 = ORIENTED_EDGE('',*,*,#660,.F.);
#660 = EDGE_CURVE('',#661,#652,#663,.T.);
#661 = VERTEX_POINT('',#662);
#662 = CARTESIAN_POINT('',(10.295732791466,1.685039370079,0.));
#663 = LINE('',#664,#665);
#664 = CARTESIAN_POINT('',(10.295732791466,1.685039370079,0.));
#665 = VECTOR('',#666,1.);
#666 = DIRECTION('',(0.,0.,1.));
#667 = ORIENTED_EDGE('',*,*,#668,.F.);
#668 = EDGE_CURVE('',#642,#661,#669,.T.);
#669 = CIRCLE('',#670,0.450012700025);
#670 = AXIS2_PLACEMENT_3D('',#671,#672,#673);
#671 = CARTESIAN_POINT('',(10.745745491491,1.685039370079,0.));
#672 = DIRECTION('',(0.,0.,1.));
#673 = DIRECTION('',(1.,1.110223024625E-16,-0.));
#674 = CYLINDRICAL_SURFACE('',#675,0.450012700025);
#675 = AXIS2_PLACEMENT_3D('',#676,#677,#678);
#676 = CARTESIAN_POINT('',(10.745745491491,1.685039370079,0.));
#677 = DIRECTION('',(-0.,-0.,-1.));
#678 = DIRECTION('',(1.,1.110223024625E-16,-0.));
#679 = ADVANCED_FACE('',(#680),#698,.F.);
#680 = FACE_BOUND('',#681,.T.);
#681 = EDGE_LOOP('',(#682,#683,#690,#691));
#682 = ORIENTED_EDGE('',*,*,#660,.T.);
#683 = ORIENTED_EDGE('',*,*,#684,.T.);
#684 = EDGE_CURVE('',#652,#644,#685,.T.);
#685 = CIRCLE('',#686,0.450012700025);
#686 = AXIS2_PLACEMENT_3D('',#687,#688,#689);
#687 = CARTESIAN_POINT('',(10.745745491491,1.685039370079,1.586156972314
    ));
#688 = DIRECTION('',(0.,0.,1.));
#689 = DIRECTION('',(-1.,-1.110223024625E-16,0.));
#690 = ORIENTED_EDGE('',*,*,#641,.F.);
#691 = ORIENTED_EDGE('',*,*,#692,.F.);
#692 = EDGE_CURVE('',#661,#642,#693,.T.);
#693 = CIRCLE('',#694,0.450012700025);
#694 = AXIS2_PLACEMENT_3D('',#695,#696,#697);
#695 = CARTESIAN_POINT('',(10.745745491491,1.685039370079,0.));
#696 = DIRECTION('',(0.,0.,1.));
#697 = DIRECTION('',(-1.,-1.110223024625E-16,0.));
#698 = CYLINDRICAL_SURFACE('',#699,0.450012700025);
#699 = AXIS2_PLACEMENT_3D('',#700,#701,#702);
#700 = CARTESIAN_POINT('',(10.745745491491,1.685039370079,0.));
#701 = DIRECTION('',(-0.,-0.,-1.));
#702 = DIRECTION('',(-1.,-1.110223024625E-16,0.));
#703 = ADVANCED_FACE('',(#704),#740,.F.);
#704 = FACE_BOUND('',#705,.T.);
#705 = EDGE_LOOP('',(#706,#716,#725,#733));
#706 = ORIENTED_EDGE('',*,*,#707,.T.);
#707 = EDGE_CURVE('',#708,#710,#712,.T.);
#708 = VERTEX_POINT('',#709);
#709 = CARTESIAN_POINT('',(38.79127000254,37.54381508763,0.));
#710 = VERTEX_POINT('',#711);
#711 = CARTESIAN_POINT('',(38.79127000254,37.54381508763,1.586156972314)
  );
#712 = LINE('',#713,#714);
#713 = CARTESIAN_POINT('',(38.79127000254,37.54381508763,0.));
#714 = VECTOR('',#715,1.);
#715 = DIRECTION('',(0.,0.,1.));
#716 = ORIENTED_EDGE('',*,*,#717,.T.);
#717 = EDGE_CURVE('',#710,#718,#720,.T.);
#718 = VERTEX_POINT('',#719);
#719 = CARTESIAN_POINT('',(36.59126492253,37.54381508763,1.586156972314)
  );
#720 = CIRCLE('',#721,1.100002540005);
#721 = AXIS2_PLACEMENT_3D('',#722,#723,#724);
#722 = CARTESIAN_POINT('',(37.691267462535,37.54381508763,1.586156972314
    ));
#723 = DIRECTION('',(0.,0.,1.));
#724 = DIRECTION('',(1.,1.110223024625E-16,-0.));
#725 = ORIENTED_EDGE('',*,*,#726,.F.);
#726 = EDGE_CURVE('',#727,#718,#729,.T.);
#727 = VERTEX_POINT('',#728);
#728 = CARTESIAN_POINT('',(36.59126492253,37.54381508763,0.));
#729 = LINE('',#730,#731);
#730 = CARTESIAN_POINT('',(36.59126492253,37.54381508763,0.));
#731 = VECTOR('',#732,1.);
#732 = DIRECTION('',(0.,0.,1.));
#733 = ORIENTED_EDGE('',*,*,#734,.F.);
#734 = EDGE_CURVE('',#708,#727,#735,.T.);
#735 = CIRCLE('',#736,1.100002540005);
#736 = AXIS2_PLACEMENT_3D('',#737,#738,#739);
#737 = CARTESIAN_POINT('',(37.691267462535,37.54381508763,0.));
#738 = DIRECTION('',(0.,0.,1.));
#739 = DIRECTION('',(1.,1.110223024625E-16,-0.));
#740 = CYLINDRICAL_SURFACE('',#741,1.100002540005);
#741 = AXIS2_PLACEMENT_3D('',#742,#743,#744);
#742 = CARTESIAN_POINT('',(37.691267462535,37.54381508763,0.));
#743 = DIRECTION('',(-0.,-0.,-1.));
#744 = DIRECTION('',(1.,1.110223024625E-16,-0.));
#745 = ADVANCED_FACE('',(#746),#764,.F.);
#746 = FACE_BOUND('',#747,.T.);
#747 = EDGE_LOOP('',(#748,#749,#756,#757));
#748 = ORIENTED_EDGE('',*,*,#726,.T.);
#749 = ORIENTED_EDGE('',*,*,#750,.T.);
#750 = EDGE_CURVE('',#718,#710,#751,.T.);
#751 = CIRCLE('',#752,1.100002540005);
#752 = AXIS2_PLACEMENT_3D('',#753,#754,#755);
#753 = CARTESIAN_POINT('',(37.691267462535,37.54381508763,1.586156972314
    ));
#754 = DIRECTION('',(0.,0.,1.));
#755 = DIRECTION('',(-1.,-1.110223024625E-16,0.));
#756 = ORIENTED_EDGE('',*,*,#707,.F.);
#757 = ORIENTED_EDGE('',*,*,#758,.F.);
#758 = EDGE_CURVE('',#727,#708,#759,.T.);
#759 = CIRCLE('',#760,1.100002540005);
#760 = AXIS2_PLACEMENT_3D('',#761,#762,#763);
#761 = CARTESIAN_POINT('',(37.691267462535,37.54381508763,0.));
#762 = DIRECTION('',(0.,0.,1.));
#763 = DIRECTION('',(-1.,-1.110223024625E-16,0.));
#764 = CYLINDRICAL_SURFACE('',#765,1.100002540005);
#765 = AXIS2_PLACEMENT_3D('',#766,#767,#768);
#766 = CARTESIAN_POINT('',(37.691267462535,37.54381508763,0.));
#767 = DIRECTION('',(-0.,-0.,-1.));
#768 = DIRECTION('',(-1.,-1.110223024625E-16,0.));
#769 = ADVANCED_FACE('',(#770,#780,#784,#788,#792,#796,#800,#804),#808,
  .T.);
#770 = FACE_BOUND('',#771,.T.);
#771 = EDGE_LOOP('',(#772,#773,#774,#775,#776,#777,#778,#779));
#772 = ORIENTED_EDGE('',*,*,#82,.T.);
#773 = ORIENTED_EDGE('',*,*,#114,.T.);
#774 = ORIENTED_EDGE('',*,*,#146,.T.);
#775 = ORIENTED_EDGE('',*,*,#178,.T.);
#776 = ORIENTED_EDGE('',*,*,#210,.T.);
#777 = ORIENTED_EDGE('',*,*,#242,.T.);
#778 = ORIENTED_EDGE('',*,*,#274,.T.);
#779 = ORIENTED_EDGE('',*,*,#297,.T.);
#780 = FACE_BOUND('',#781,.T.);
#781 = EDGE_LOOP('',(#782,#783));
#782 = ORIENTED_EDGE('',*,*,#338,.T.);
#783 = ORIENTED_EDGE('',*,*,#362,.T.);
#784 = FACE_BOUND('',#785,.T.);
#785 = EDGE_LOOP('',(#786,#787));
#786 = ORIENTED_EDGE('',*,*,#404,.T.);
#787 = ORIENTED_EDGE('',*,*,#428,.T.);
#788 = FACE_BOUND('',#789,.T.);
#789 = EDGE_LOOP('',(#790,#791));
#790 = ORIENTED_EDGE('',*,*,#470,.T.);
#791 = ORIENTED_EDGE('',*,*,#494,.T.);
#792 = FACE_BOUND('',#793,.T.);
#793 = EDGE_LOOP('',(#794,#795));
#794 = ORIENTED_EDGE('',*,*,#536,.T.);
#795 = ORIENTED_EDGE('',*,*,#560,.T.);
#796 = FACE_BOUND('',#797,.T.);
#797 = EDGE_LOOP('',(#798,#799));
#798 = ORIENTED_EDGE('',*,*,#602,.T.);
#799 = ORIENTED_EDGE('',*,*,#626,.T.);
#800 = FACE_BOUND('',#801,.T.);
#801 = EDGE_LOOP('',(#802,#803));
#802 = ORIENTED_EDGE('',*,*,#668,.T.);
#803 = ORIENTED_EDGE('',*,*,#692,.T.);
#804 = FACE_BOUND('',#805,.T.);
#805 = EDGE_LOOP('',(#806,#807));
#806 = ORIENTED_EDGE('',*,*,#734,.T.);
#807 = ORIENTED_EDGE('',*,*,#758,.T.);
#808 = PLANE('',#809);
#809 = AXIS2_PLACEMENT_3D('',#810,#811,#812);
#810 = CARTESIAN_POINT('',(19.702239014478,19.951347472695,0.));
#811 = DIRECTION('',(-0.,-0.,-1.));
#812 = DIRECTION('',(-1.,0.,0.));
#813 = ADVANCED_FACE('',(#814,#824,#828,#832,#836,#840,#844,#848),#852,
  .F.);
#814 = FACE_BOUND('',#815,.F.);
#815 = EDGE_LOOP('',(#816,#817,#818,#819,#820,#821,#822,#823));
#816 = ORIENTED_EDGE('',*,*,#65,.T.);
#817 = ORIENTED_EDGE('',*,*,#98,.T.);
#818 = ORIENTED_EDGE('',*,*,#129,.T.);
#819 = ORIENTED_EDGE('',*,*,#162,.T.);
#820 = ORIENTED_EDGE('',*,*,#193,.T.);
#821 = ORIENTED_EDGE('',*,*,#226,.T.);
#822 = ORIENTED_EDGE('',*,*,#257,.T.);
#823 = ORIENTED_EDGE('',*,*,#290,.T.);
#824 = FACE_BOUND('',#825,.F.);
#825 = EDGE_LOOP('',(#826,#827));
#826 = ORIENTED_EDGE('',*,*,#321,.T.);
#827 = ORIENTED_EDGE('',*,*,#354,.T.);
#828 = FACE_BOUND('',#829,.F.);
#829 = EDGE_LOOP('',(#830,#831));
#830 = ORIENTED_EDGE('',*,*,#387,.T.);
#831 = ORIENTED_EDGE('',*,*,#420,.T.);
#832 = FACE_BOUND('',#833,.F.);
#833 = EDGE_LOOP('',(#834,#835));
#834 = ORIENTED_EDGE('',*,*,#453,.T.);
#835 = ORIENTED_EDGE('',*,*,#486,.T.);
#836 = FACE_BOUND('',#837,.F.);
#837 = EDGE_LOOP('',(#838,#839));
#838 = ORIENTED_EDGE('',*,*,#519,.T.);
#839 = ORIENTED_EDGE('',*,*,#552,.T.);
#840 = FACE_BOUND('',#841,.F.);
#841 = EDGE_LOOP('',(#842,#843));
#842 = ORIENTED_EDGE('',*,*,#585,.T.);
#843 = ORIENTED_EDGE('',*,*,#618,.T.);
#844 = FACE_BOUND('',#845,.F.);
#845 = EDGE_LOOP('',(#846,#847));
#846 = ORIENTED_EDGE('',*,*,#651,.T.);
#847 = ORIENTED_EDGE('',*,*,#684,.T.);
#848 = FACE_BOUND('',#849,.F.);
#849 = EDGE_LOOP('',(#850,#851));
#850 = ORIENTED_EDGE('',*,*,#717,.T.);
#851 = ORIENTED_EDGE('',*,*,#750,.T.);
#852 = PLANE('',#853);
#853 = AXIS2_PLACEMENT_3D('',#854,#855,#856);
#854 = CARTESIAN_POINT('',(19.702239014478,19.951347472695,
    1.586156972314));
#855 = DIRECTION('',(-0.,-0.,-1.));
#856 = DIRECTION('',(-1.,0.,0.));
#857 = ( GEOMETRIC_REPRESENTATION_CONTEXT(3) 
GLOBAL_UNCERTAINTY_ASSIGNED_CONTEXT((#861)) GLOBAL_UNIT_ASSIGNED_CONTEXT
((#858,#859,#860)) REPRESENTATION_CONTEXT('Context #1',
  '3D Context with UNIT and UNCERTAINTY') );
#858 = ( LENGTH_UNIT() NAMED_UNIT(*) SI_UNIT(.MILLI.,.METRE.) );
#859 = ( NAMED_UNIT(*) PLANE_ANGLE_UNIT() SI_UNIT($,.RADIAN.) );
#860 = ( NAMED_UNIT(*) SI_UNIT($,.STERADIAN.) SOLID_ANGLE_UNIT() );
#861 = UNCERTAINTY_MEASURE_WITH_UNIT(LENGTH_MEASURE(1.E-07),#858,
  'distance_accuracy_value','confusion accuracy');
#862 = CONTEXT_DEPENDENT_SHAPE_REPRESENTATION(#863,#865);
#863 = ( REPRESENTATION_RELATIONSHIP('','',#48,#10) 
REPRESENTATION_RELATIONSHIP_WITH_TRANSFORMATION(#864) 
SHAPE_REPRESENTATION_RELATIONSHIP() );
#864 = ITEM_DEFINED_TRANSFORMATION('','',#11,#15);
#865 = PRODUCT_DEFINITION_SHAPE('Placement','Placement of an item',#866
  );
#866 = NEXT_ASSEMBLY_USAGE_OCCURRENCE('1','=>[0:1:1:2]','',#5,#43,$);
#867 = PRODUCT_RELATED_PRODUCT_CATEGORY('part',$,(#45));
#868 = SHAPE_DEFINITION_REPRESENTATION(#869,#875);
#869 = PRODUCT_DEFINITION_SHAPE('','',#870);
#870 = PRODUCT_DEFINITION('design','',#871,#874);
#871 = PRODUCT_DEFINITION_FORMATION('','',#872);
#872 = PRODUCT('TopCopper~hO0L','TopCopper~hO0L','',(#873));
#873 = PRODUCT_CONTEXT('',#2,'mechanical');
#874 = PRODUCT_DEFINITION_CONTEXT('part definition',#2,'design');
#875 = SHAPE_REPRESENTATION('',(#11),#876);
#876 = ( GEOMETRIC_REPRESENTATION_CONTEXT(3) 
GLOBAL_UNCERTAINTY_ASSIGNED_CONTEXT((#880)) GLOBAL_UNIT_ASSIGNED_CONTEXT
((#877,#878,#879)) REPRESENTATION_CONTEXT('Context #1',
  '3D Context with UNIT and UNCERTAINTY') );
#877 = ( LENGTH_UNIT() NAMED_UNIT(*) SI_UNIT(.MILLI.,.METRE.) );
#878 = ( NAMED_UNIT(*) PLANE_ANGLE_UNIT() SI_UNIT($,.RADIAN.) );
#879 = ( NAMED_UNIT(*) SI_UNIT($,.STERADIAN.) SOLID_ANGLE_UNIT() );
#880 = UNCERTAINTY_MEASURE_WITH_UNIT(LENGTH_MEASURE(1.E-07),#877,
  'distance_accuracy_value','confusion accuracy');
#881 = CONTEXT_DEPENDENT_SHAPE_REPRESENTATION(#882,#884);
#882 = ( REPRESENTATION_RELATIONSHIP('','',#875,#10) 
REPRESENTATION_RELATIONSHIP_WITH_TRANSFORMATION(#883) 
SHAPE_REPRESENTATION_RELATIONSHIP() );
#883 = ITEM_DEFINED_TRANSFORMATION('','',#11,#19);
#884 = PRODUCT_DEFINITION_SHAPE('Placement','Placement of an item',#885
  );
#885 = NEXT_ASSEMBLY_USAGE_OCCURRENCE('2','=>[0:1:1:3]','',#5,#870,$);
#886 = PRODUCT_RELATED_PRODUCT_CATEGORY('part',$,(#872));
#887 = SHAPE_DEFINITION_REPRESENTATION(#888,#894);
#888 = PRODUCT_DEFINITION_SHAPE('','',#889);
#889 = PRODUCT_DEFINITION('design','',#890,#893);
#890 = PRODUCT_DEFINITION_FORMATION('','',#891);
#891 = PRODUCT('BottomCopper~hO0L','BottomCopper~hO0L','',(#892));
#892 = PRODUCT_CONTEXT('',#2,'mechanical');
#893 = PRODUCT_DEFINITION_CONTEXT('part definition',#2,'design');
#894 = SHAPE_REPRESENTATION('',(#11),#895);
#895 = ( GEOMETRIC_REPRESENTATION_CONTEXT(3) 
GLOBAL_UNCERTAINTY_ASSIGNED_CONTEXT((#899)) GLOBAL_UNIT_ASSIGNED_CONTEXT
((#896,#897,#898)) REPRESENTATION_CONTEXT('Context #1',
  '3D Context with UNIT and UNCERTAINTY') );
#896 = ( LENGTH_UNIT() NAMED_UNIT(*) SI_UNIT(.MILLI.,.METRE.) );
#897 = ( NAMED_UNIT(*) PLANE_ANGLE_UNIT() SI_UNIT($,.RADIAN.) );
#898 = ( NAMED_UNIT(*) SI_UNIT($,.STERADIAN.) SOLID_ANGLE_UNIT() );
#899 = UNCERTAINTY_MEASURE_WITH_UNIT(LENGTH_MEASURE(1.E-07),#896,
  'distance_accuracy_value','confusion accuracy');
#900 = CONTEXT_DEPENDENT_SHAPE_REPRESENTATION(#901,#903);
#901 = ( REPRESENTATION_RELATIONSHIP('','',#894,#10) 
REPRESENTATION_RELATIONSHIP_WITH_TRANSFORMATION(#902) 
SHAPE_REPRESENTATION_RELATIONSHIP() );
#902 = ITEM_DEFINED_TRANSFORMATION('','',#11,#23);
#903 = PRODUCT_DEFINITION_SHAPE('Placement','Placement of an item',#904
  );
#904 = NEXT_ASSEMBLY_USAGE_OCCURRENCE('3','=>[0:1:1:4]','',#5,#889,$);
#905 = PRODUCT_RELATED_PRODUCT_CATEGORY('part',$,(#891));
#906 = SHAPE_DEFINITION_REPRESENTATION(#907,#913);
#907 = PRODUCT_DEFINITION_SHAPE('','',#908);
#908 = PRODUCT_DEFINITION('design','',#909,#912);
#909 = PRODUCT_DEFINITION_FORMATION('','',#910);
#910 = PRODUCT('TopFpcStiffener~hO0L','TopFpcStiffener~hO0L','',(#911));
#911 = PRODUCT_CONTEXT('',#2,'mechanical');
#912 = PRODUCT_DEFINITION_CONTEXT('part definition',#2,'design');
#913 = SHAPE_REPRESENTATION('',(#11),#914);
#914 = ( GEOMETRIC_REPRESENTATION_CONTEXT(3) 
GLOBAL_UNCERTAINTY_ASSIGNED_CONTEXT((#918)) GLOBAL_UNIT_ASSIGNED_CONTEXT
((#915,#916,#917)) REPRESENTATION_CONTEXT('Context #1',
  '3D Context with UNIT and UNCERTAINTY') );
#915 = ( LENGTH_UNIT() NAMED_UNIT(*) SI_UNIT(.MILLI.,.METRE.) );
#916 = ( NAMED_UNIT(*) PLANE_ANGLE_UNIT() SI_UNIT($,.RADIAN.) );
#917 = ( NAMED_UNIT(*) SI_UNIT($,.STERADIAN.) SOLID_ANGLE_UNIT() );
#918 = UNCERTAINTY_MEASURE_WITH_UNIT(LENGTH_MEASURE(1.E-07),#915,
  'distance_accuracy_value','confusion accuracy');
#919 = CONTEXT_DEPENDENT_SHAPE_REPRESENTATION(#920,#922);
#920 = ( REPRESENTATION_RELATIONSHIP('','',#913,#10) 
REPRESENTATION_RELATIONSHIP_WITH_TRANSFORMATION(#921) 
SHAPE_REPRESENTATION_RELATIONSHIP() );
#921 = ITEM_DEFINED_TRANSFORMATION('','',#11,#27);
#922 = PRODUCT_DEFINITION_SHAPE('Placement','Placement of an item',#923
  );
#923 = NEXT_ASSEMBLY_USAGE_OCCURRENCE('4','=>[0:1:1:5]','',#5,#908,$);
#924 = PRODUCT_RELATED_PRODUCT_CATEGORY('part',$,(#910));
#925 = SHAPE_DEFINITION_REPRESENTATION(#926,#932);
#926 = PRODUCT_DEFINITION_SHAPE('','',#927);
#927 = PRODUCT_DEFINITION('design','',#928,#931);
#928 = PRODUCT_DEFINITION_FORMATION('','',#929);
#929 = PRODUCT('BottomFpcStiffener~hO0L','BottomFpcStiffener~hO0L','',(
    #930));
#930 = PRODUCT_CONTEXT('',#2,'mechanical');
#931 = PRODUCT_DEFINITION_CONTEXT('part definition',#2,'design');
#932 = SHAPE_REPRESENTATION('',(#11),#933);
#933 = ( GEOMETRIC_REPRESENTATION_CONTEXT(3) 
GLOBAL_UNCERTAINTY_ASSIGNED_CONTEXT((#937)) GLOBAL_UNIT_ASSIGNED_CONTEXT
((#934,#935,#936)) REPRESENTATION_CONTEXT('Context #1',
  '3D Context with UNIT and UNCERTAINTY') );
#934 = ( LENGTH_UNIT() NAMED_UNIT(*) SI_UNIT(.MILLI.,.METRE.) );
#935 = ( NAMED_UNIT(*) PLANE_ANGLE_UNIT() SI_UNIT($,.RADIAN.) );
#936 = ( NAMED_UNIT(*) SI_UNIT($,.STERADIAN.) SOLID_ANGLE_UNIT() );
#937 = UNCERTAINTY_MEASURE_WITH_UNIT(LENGTH_MEASURE(1.E-07),#934,
  'distance_accuracy_value','confusion accuracy');
#938 = CONTEXT_DEPENDENT_SHAPE_REPRESENTATION(#939,#941);
#939 = ( REPRESENTATION_RELATIONSHIP('','',#932,#10) 
REPRESENTATION_RELATIONSHIP_WITH_TRANSFORMATION(#940) 
SHAPE_REPRESENTATION_RELATIONSHIP() );
#940 = ITEM_DEFINED_TRANSFORMATION('','',#11,#31);
#941 = PRODUCT_DEFINITION_SHAPE('Placement','Placement of an item',#942
  );
#942 = NEXT_ASSEMBLY_USAGE_OCCURRENCE('5','=>[0:1:1:6]','',#5,#927,$);
#943 = PRODUCT_RELATED_PRODUCT_CATEGORY('part',$,(#929));
#944 = MECHANICAL_DESIGN_GEOMETRIC_PRESENTATION_REPRESENTATION('',(#945,
    #955,#963,#970,#977,#984,#991,#998,#1005,#1012,#1019,#1026,#1033,
    #1040,#1047,#1054,#1061,#1068,#1075,#1082,#1089,#1096,#1103),#857);
#945 = STYLED_ITEM('color',(#946),#49);
#946 = PRESENTATION_STYLE_ASSIGNMENT((#947,#953));
#947 = SURFACE_STYLE_USAGE(.BOTH.,#948);
#948 = SURFACE_SIDE_STYLE('',(#949));
#949 = SURFACE_STYLE_FILL_AREA(#950);
#950 = FILL_AREA_STYLE('',(#951));
#951 = FILL_AREA_STYLE_COLOUR('',#952);
#952 = COLOUR_RGB('',0.,0.377508427907,0.578582128266);
#953 = CURVE_STYLE('',#954,POSITIVE_LENGTH_MEASURE(0.1),#952);
#954 = DRAUGHTING_PRE_DEFINED_CURVE_FONT('continuous');
#955 = OVER_RIDING_STYLED_ITEM('overriding color',(#956),#51,#945);
#956 = PRESENTATION_STYLE_ASSIGNMENT((#957));
#957 = SURFACE_STYLE_USAGE(.BOTH.,#958);
#958 = SURFACE_SIDE_STYLE('',(#959));
#959 = SURFACE_STYLE_FILL_AREA(#960);
#960 = FILL_AREA_STYLE('',(#961));
#961 = FILL_AREA_STYLE_COLOUR('',#962);
#962 = COLOUR_RGB('',0.937179583391,0.9357410338,0.649182888601);
#963 = OVER_RIDING_STYLED_ITEM('overriding color',(#964),#93,#945);
#964 = PRESENTATION_STYLE_ASSIGNMENT((#965));
#965 = SURFACE_STYLE_USAGE(.BOTH.,#966);
#966 = SURFACE_SIDE_STYLE('',(#967));
#967 = SURFACE_STYLE_FILL_AREA(#968);
#968 = FILL_AREA_STYLE('',(#969));
#969 = FILL_AREA_STYLE_COLOUR('',#962);
#970 = OVER_RIDING_STYLED_ITEM('overriding color',(#971),#124,#945);
#971 = PRESENTATION_STYLE_ASSIGNMENT((#972));
#972 = SURFACE_STYLE_USAGE(.BOTH.,#973);
#973 = SURFACE_SIDE_STYLE('',(#974));
#974 = SURFACE_STYLE_FILL_AREA(#975);
#975 = FILL_AREA_STYLE('',(#976));
#976 = FILL_AREA_STYLE_COLOUR('',#962);
#977 = OVER_RIDING_STYLED_ITEM('overriding color',(#978),#157,#945);
#978 = PRESENTATION_STYLE_ASSIGNMENT((#979));
#979 = SURFACE_STYLE_USAGE(.BOTH.,#980);
#980 = SURFACE_SIDE_STYLE('',(#981));
#981 = SURFACE_STYLE_FILL_AREA(#982);
#982 = FILL_AREA_STYLE('',(#983));
#983 = FILL_AREA_STYLE_COLOUR('',#962);
#984 = OVER_RIDING_STYLED_ITEM('overriding color',(#985),#188,#945);
#985 = PRESENTATION_STYLE_ASSIGNMENT((#986));
#986 = SURFACE_STYLE_USAGE(.BOTH.,#987);
#987 = SURFACE_SIDE_STYLE('',(#988));
#988 = SURFACE_STYLE_FILL_AREA(#989);
#989 = FILL_AREA_STYLE('',(#990));
#990 = FILL_AREA_STYLE_COLOUR('',#962);
#991 = OVER_RIDING_STYLED_ITEM('overriding color',(#992),#221,#945);
#992 = PRESENTATION_STYLE_ASSIGNMENT((#993));
#993 = SURFACE_STYLE_USAGE(.BOTH.,#994);
#994 = SURFACE_SIDE_STYLE('',(#995));
#995 = SURFACE_STYLE_FILL_AREA(#996);
#996 = FILL_AREA_STYLE('',(#997));
#997 = FILL_AREA_STYLE_COLOUR('',#962);
#998 = OVER_RIDING_STYLED_ITEM('overriding color',(#999),#252,#945);
#999 = PRESENTATION_STYLE_ASSIGNMENT((#1000));
#1000 = SURFACE_STYLE_USAGE(.BOTH.,#1001);
#1001 = SURFACE_SIDE_STYLE('',(#1002));
#1002 = SURFACE_STYLE_FILL_AREA(#1003);
#1003 = FILL_AREA_STYLE('',(#1004));
#1004 = FILL_AREA_STYLE_COLOUR('',#962);
#1005 = OVER_RIDING_STYLED_ITEM('overriding color',(#1006),#285,#945);
#1006 = PRESENTATION_STYLE_ASSIGNMENT((#1007));
#1007 = SURFACE_STYLE_USAGE(.BOTH.,#1008);
#1008 = SURFACE_SIDE_STYLE('',(#1009));
#1009 = SURFACE_STYLE_FILL_AREA(#1010);
#1010 = FILL_AREA_STYLE('',(#1011));
#1011 = FILL_AREA_STYLE_COLOUR('',#962);
#1012 = OVER_RIDING_STYLED_ITEM('overriding color',(#1013),#307,#945);
#1013 = PRESENTATION_STYLE_ASSIGNMENT((#1014));
#1014 = SURFACE_STYLE_USAGE(.BOTH.,#1015);
#1015 = SURFACE_SIDE_STYLE('',(#1016));
#1016 = SURFACE_STYLE_FILL_AREA(#1017);
#1017 = FILL_AREA_STYLE('',(#1018));
#1018 = FILL_AREA_STYLE_COLOUR('',#962);
#1019 = OVER_RIDING_STYLED_ITEM('overriding color',(#1020),#349,#945);
#1020 = PRESENTATION_STYLE_ASSIGNMENT((#1021));
#1021 = SURFACE_STYLE_USAGE(.BOTH.,#1022);
#1022 = SURFACE_SIDE_STYLE('',(#1023));
#1023 = SURFACE_STYLE_FILL_AREA(#1024);
#1024 = FILL_AREA_STYLE('',(#1025));
#1025 = FILL_AREA_STYLE_COLOUR('',#962);
#1026 = OVER_RIDING_STYLED_ITEM('overriding color',(#1027),#373,#945);
#1027 = PRESENTATION_STYLE_ASSIGNMENT((#1028));
#1028 = SURFACE_STYLE_USAGE(.BOTH.,#1029);
#1029 = SURFACE_SIDE_STYLE('',(#1030));
#1030 = SURFACE_STYLE_FILL_AREA(#1031);
#1031 = FILL_AREA_STYLE('',(#1032));
#1032 = FILL_AREA_STYLE_COLOUR('',#962);
#1033 = OVER_RIDING_STYLED_ITEM('overriding color',(#1034),#415,#945);
#1034 = PRESENTATION_STYLE_ASSIGNMENT((#1035));
#1035 = SURFACE_STYLE_USAGE(.BOTH.,#1036);
#1036 = SURFACE_SIDE_STYLE('',(#1037));
#1037 = SURFACE_STYLE_FILL_AREA(#1038);
#1038 = FILL_AREA_STYLE('',(#1039));
#1039 = FILL_AREA_STYLE_COLOUR('',#962);
#1040 = OVER_RIDING_STYLED_ITEM('overriding color',(#1041),#439,#945);
#1041 = PRESENTATION_STYLE_ASSIGNMENT((#1042));
#1042 = SURFACE_STYLE_USAGE(.BOTH.,#1043);
#1043 = SURFACE_SIDE_STYLE('',(#1044));
#1044 = SURFACE_STYLE_FILL_AREA(#1045);
#1045 = FILL_AREA_STYLE('',(#1046));
#1046 = FILL_AREA_STYLE_COLOUR('',#962);
#1047 = OVER_RIDING_STYLED_ITEM('overriding color',(#1048),#481,#945);
#1048 = PRESENTATION_STYLE_ASSIGNMENT((#1049));
#1049 = SURFACE_STYLE_USAGE(.BOTH.,#1050);
#1050 = SURFACE_SIDE_STYLE('',(#1051));
#1051 = SURFACE_STYLE_FILL_AREA(#1052);
#1052 = FILL_AREA_STYLE('',(#1053));
#1053 = FILL_AREA_STYLE_COLOUR('',#962);
#1054 = OVER_RIDING_STYLED_ITEM('overriding color',(#1055),#505,#945);
#1055 = PRESENTATION_STYLE_ASSIGNMENT((#1056));
#1056 = SURFACE_STYLE_USAGE(.BOTH.,#1057);
#1057 = SURFACE_SIDE_STYLE('',(#1058));
#1058 = SURFACE_STYLE_FILL_AREA(#1059);
#1059 = FILL_AREA_STYLE('',(#1060));
#1060 = FILL_AREA_STYLE_COLOUR('',#962);
#1061 = OVER_RIDING_STYLED_ITEM('overriding color',(#1062),#547,#945);
#1062 = PRESENTATION_STYLE_ASSIGNMENT((#1063));
#1063 = SURFACE_STYLE_USAGE(.BOTH.,#1064);
#1064 = SURFACE_SIDE_STYLE('',(#1065));
#1065 = SURFACE_STYLE_FILL_AREA(#1066);
#1066 = FILL_AREA_STYLE('',(#1067));
#1067 = FILL_AREA_STYLE_COLOUR('',#962);
#1068 = OVER_RIDING_STYLED_ITEM('overriding color',(#1069),#571,#945);
#1069 = PRESENTATION_STYLE_ASSIGNMENT((#1070));
#1070 = SURFACE_STYLE_USAGE(.BOTH.,#1071);
#1071 = SURFACE_SIDE_STYLE('',(#1072));
#1072 = SURFACE_STYLE_FILL_AREA(#1073);
#1073 = FILL_AREA_STYLE('',(#1074));
#1074 = FILL_AREA_STYLE_COLOUR('',#962);
#1075 = OVER_RIDING_STYLED_ITEM('overriding color',(#1076),#613,#945);
#1076 = PRESENTATION_STYLE_ASSIGNMENT((#1077));
#1077 = SURFACE_STYLE_USAGE(.BOTH.,#1078);
#1078 = SURFACE_SIDE_STYLE('',(#1079));
#1079 = SURFACE_STYLE_FILL_AREA(#1080);
#1080 = FILL_AREA_STYLE('',(#1081));
#1081 = FILL_AREA_STYLE_COLOUR('',#962);
#1082 = OVER_RIDING_STYLED_ITEM('overriding color',(#1083),#637,#945);
#1083 = PRESENTATION_STYLE_ASSIGNMENT((#1084));
#1084 = SURFACE_STYLE_USAGE(.BOTH.,#1085);
#1085 = SURFACE_SIDE_STYLE('',(#1086));
#1086 = SURFACE_STYLE_FILL_AREA(#1087);
#1087 = FILL_AREA_STYLE('',(#1088));
#1088 = FILL_AREA_STYLE_COLOUR('',#962);
#1089 = OVER_RIDING_STYLED_ITEM('overriding color',(#1090),#679,#945);
#1090 = PRESENTATION_STYLE_ASSIGNMENT((#1091));
#1091 = SURFACE_STYLE_USAGE(.BOTH.,#1092);
#1092 = SURFACE_SIDE_STYLE('',(#1093));
#1093 = SURFACE_STYLE_FILL_AREA(#1094);
#1094 = FILL_AREA_STYLE('',(#1095));
#1095 = FILL_AREA_STYLE_COLOUR('',#962);
#1096 = OVER_RIDING_STYLED_ITEM('overriding color',(#1097),#703,#945);
#1097 = PRESENTATION_STYLE_ASSIGNMENT((#1098));
#1098 = SURFACE_STYLE_USAGE(.BOTH.,#1099);
#1099 = SURFACE_SIDE_STYLE('',(#1100));
#1100 = SURFACE_STYLE_FILL_AREA(#1101);
#1101 = FILL_AREA_STYLE('',(#1102));
#1102 = FILL_AREA_STYLE_COLOUR('',#962);
#1103 = OVER_RIDING_STYLED_ITEM('overriding color',(#1104),#745,#945);
#1104 = PRESENTATION_STYLE_ASSIGNMENT((#1105));
#1105 = SURFACE_STYLE_USAGE(.BOTH.,#1106);
#1106 = SURFACE_SIDE_STYLE('',(#1107));
#1107 = SURFACE_STYLE_FILL_AREA(#1108);
#1108 = FILL_AREA_STYLE('',(#1109));
#1109 = FILL_AREA_STYLE_COLOUR('',#962);
ENDSEC;
END-ISO-10303-21;
